# xmcd CD database file
#
# Track frame offsets:
#	205
#	13568
#	32905
#	45943
#	58660
#	71448
#	85200
#	108213
#	120603
#	132843
#	146790
#	158390
#	176535
#	187350
#	202060
#
# Disc length: 2875 seconds
#
# Revision: 0
# Processed by: cddbd v1.5.1PL0 Copyright (c) Steve Scherf et al.
# Submitted via: CDex 1.51
#
DISCID=cd0b390f
DTITLE=Angy Burri and The Apaches - Angy Burri and The Apaches
DYEAR=1988
DGENRE=Country
TTITLE0=School Days
TTITLE1=Me and Bobby McGee
TTITLE2=Promised Land
TTITLE3=Baby Ride Easy
TTITLE4=Eagle Woman
TTITLE5=Jeannie, Jeannie
TTITLE6=Hiawatba's Vision Son Don't Go Near The Indians
TTITLE7=Mammas Don't Let Your Babies Grow Up To Be Cowboys
TTITLE8=Truck Drivin' Man
TTITLE9=Summertime Blues
TTITLE10=Little Sister
TTITLE11=Smoke Along The Track
TTITLE12=Paralyzed
TTITLE13=C'est La Vie" You Never Can Tell
TTITLE14=Skinnie Minnie
EXTD=YEAR: 1988
EXTT0=
EXTT1=
EXTT2=
EXTT3=
EXTT4=
EXTT5=
EXTT6=
EXTT7=
EXTT8=
EXTT9=
EXTT10=
EXTT11=
EXTT12=
EXTT13=
EXTT14=
PLAYORDER=
